<?xml version="1.0" encoding="utf-8"?>
<!-- Generator: Adobe Illustrator 24.2.0, SVG Export Plug-In . SVG Version: 6.00 Build 0)  -->
<svg version="1.1" id="Layer_1" focusable="false" xmlns="http://www.w3.org/2000/svg" xmlns:xlink="http://www.w3.org/1999/xlink"
	 x="0px" y="0px" viewBox="0 0 33.1 33.4" style="enable-background:new 0 0 33.1 33.4;" xml:space="preserve">
<style type="text/css">
	.st0{fill:#1C1CA3;}
</style>
<g>
	<path class="st0" d="M16.6,0.1C7.4,0.1,0,7.5,0,16.7s7.4,16.6,16.6,16.6s16.6-7.4,16.6-16.6S25.7,0.1,16.6,0.1z M26.6,27.4
		c0,0.5-0.3,0.8-0.8,0.8h-5.8c-0.5,0-0.8-0.3-0.8-0.8v-4.9c0-0.5-0.3-0.8-0.8-0.8H15c-0.5,0-0.8,0.3-0.8,0.8v4.9
		c0,0.5-0.3,0.8-0.8,0.8H7.5c-0.5,0-0.8-0.3-0.8-0.8V19l9.5-7.8c0.3-0.2,0.6-0.2,0.8,0l9.6,7.8V27.4z M30,19
		c-0.3,0.3-0.6,0.3-0.9,0.1L17,9c-0.2-0.2-0.6-0.2-0.8,0L4.1,19c-0.3,0.2-0.7,0.2-0.9-0.1l-1.3-1.6c-0.2-0.3-0.2-0.7,0.1-0.9L15,5.7
		c0.9-0.8,2.3-0.8,3.2,0l4.6,3.8V5.8c0-0.3,0.3-0.6,0.6-0.6h2.9c0.3,0,0.6,0.3,0.6,0.6V13l4.3,3.5c0.3,0.2,0.3,0.6,0.1,0.9L30,19z"
		/>
</g>
</svg>
