<?xml version="1.0" encoding="utf-8"?>
<!-- Generator: Adobe Illustrator 24.2.0, SVG Export Plug-In . SVG Version: 6.00 Build 0)  -->
<svg version="1.1" id="Layer_1" focusable="false" xmlns="http://www.w3.org/2000/svg" xmlns:xlink="http://www.w3.org/1999/xlink"
	 x="0px" y="0px" viewBox="0 0 33.1 25.5" style="enable-background:new 0 0 33.1 25.5;" xml:space="preserve">
<style type="text/css">
	.st0{fill:#1B8E1E;}
</style>
<path class="st0" d="M16.1,6.7L5.6,15.3v9.3c0,0.5,0.4,0.9,0.9,0.9H13c0.5,0,0.9-0.4,0.9-0.9v-5.4c0-0.5,0.4-0.9,0.9-0.9h3.7
	c0.5,0,0.9,0.4,0.9,0.9v5.4c0,0.5,0.4,0.9,0.9,0.9l0,0h6.4c0.5,0,0.9-0.4,0.9-0.9v-9.3L17,6.7C16.7,6.4,16.4,6.4,16.1,6.7L16.1,6.7z
	 M32.7,12.5L28,8.6V0.7C28,0.3,27.7,0,27.3,0h-3.2c-0.4,0-0.7,0.3-0.7,0.7v4.1l-5.1-4.2c-1-0.8-2.5-0.8-3.5,0L0.4,12.5
	c-0.3,0.2-0.3,0.7-0.1,1l0,0l1.5,1.8c0.2,0.3,0.7,0.3,1,0.1l0,0L16.2,4.3c0.2-0.2,0.6-0.2,0.8,0l13.4,11.1c0.3,0.2,0.7,0.2,1-0.1
	l0,0l1.5-1.8C33,13.1,33,12.8,32.7,12.5L32.7,12.5L32.7,12.5z"/>
</svg>
