<?xml version="1.0" encoding="utf-8"?>
<!-- Generator: Adobe Illustrator 24.2.0, SVG Export Plug-In . SVG Version: 6.00 Build 0)  -->
<svg version="1.1" id="Layer_1" focusable="false" xmlns="http://www.w3.org/2000/svg" xmlns:xlink="http://www.w3.org/1999/xlink"
	 x="0px" y="0px" viewBox="0 0 37.2 33.1" style="enable-background:new 0 0 37.2 33.1;" xml:space="preserve">
<style type="text/css">
	.st0{fill:#1C1CA3;}
</style>
<path class="st0" d="M34.1,19.4l3-13.4c0.3-1-0.5-1.9-1.5-1.9H10.3L9.7,1.2C9.5,0.5,8.9,0,8.1,0H1.6C0.7,0,0,0.7,0,1.6v1
	c0,0.9,0.7,1.6,1.6,1.6h4.5l4.5,22.2c-1.1,0.6-1.8,1.8-1.8,3.1c0,2,1.6,3.6,3.6,3.6s3.6-1.6,3.6-3.6c0-1-0.4-1.9-1.1-2.6h13.6
	c-0.7,0.7-1.1,1.6-1.1,2.6c0,2,1.6,3.6,3.6,3.6s3.6-1.6,3.6-3.6c0-1.5-0.9-2.7-2.1-3.3l0.3-1.6c0.3-1-0.5-1.9-1.5-1.9H14.1l-0.4-2.1
	h19C33.4,20.6,34,20.1,34.1,19.4z"/>
</svg>
