<?xml version="1.0" encoding="utf-8"?>
<!-- Generator: Adobe Illustrator 24.2.0, SVG Export Plug-In . SVG Version: 6.00 Build 0)  -->
<svg version="1.1" id="Layer_1" focusable="false" xmlns="http://www.w3.org/2000/svg" xmlns:xlink="http://www.w3.org/1999/xlink"
	 x="0px" y="0px" viewBox="0 0 24.8 24.8" style="enable-background:new 0 0 24.8 24.8;" xml:space="preserve">
<style type="text/css">
	.st0{fill:#293247;}
</style>
<path class="st0" d="M24.3,19.2l-5.7-5.7c-1.1-1.1-2.8-1.3-4.1-0.7L9.3,7.7v-3L3.1,0L0,3.1l4.6,6.2h3l5.2,5.2
	c-0.7,1.3-0.5,3,0.7,4.1l5.7,5.7c0.7,0.7,1.9,0.7,2.5,0l2.5-2.5C25,21,25,19.9,24.3,19.2L24.3,19.2z M16.1,10.9
	c1.4,0,2.6,0.5,3.6,1.5l0.9,0.9c0.8-0.3,1.5-0.8,2.1-1.4c1.8-1.8,2.4-4.3,1.9-6.6c-0.1-0.4-0.7-0.6-1-0.3L20,8.6l-3.3-0.6l-0.6-3.3
	l3.6-3.6c0.3-0.3,0.2-0.9-0.3-1c-2.2-0.5-4.8,0.1-6.6,1.9c-1.4,1.4-2,3.2-2,5l4,4C15.3,11,15.7,10.9,16.1,10.9L16.1,10.9z
	 M11.1,14.9l-2.7-2.7l-7.4,7.4c-1.2,1.2-1.2,3.2,0,4.4s3.2,1.2,4.4,0l6-6C10.9,17,10.8,15.9,11.1,14.9L11.1,14.9z M3.1,22.8
	c-0.6,0-1.1-0.5-1.1-1.1c0-0.6,0.5-1.1,1.1-1.1s1.1,0.5,1.1,1.1C4.3,22.3,3.8,22.8,3.1,22.8z"/>
</svg>
