<?xml version="1.0" encoding="utf-8"?>
<!-- Generator: Adobe Illustrator 24.2.0, SVG Export Plug-In . SVG Version: 6.00 Build 0)  -->
<svg version="1.1" id="Layer_1" focusable="false" xmlns="http://www.w3.org/2000/svg" xmlns:xlink="http://www.w3.org/1999/xlink"
	 x="0px" y="0px" viewBox="0 0 42.4 33.4" style="enable-background:new 0 0 42.4 33.4;" xml:space="preserve">
<style type="text/css">
	.st0{fill:#CCA136;}
</style>
<path class="st0" d="M20.6,8.7L6.9,20v12.2c0,0.7,0.5,1.2,1.2,1.2h8.4c0.7,0,1.2-0.5,1.2-1.2v-7.1c0-0.7,0.5-1.2,1.2-1.2h4.8
	c0.7,0,1.2,0.5,1.2,1.2v7.1c0,0.7,0.5,1.2,1.2,1.2l0,0h8.4c0.7,0,1.2-0.5,1.2-1.2V20L21.8,8.7C21.4,8.4,21,8.4,20.6,8.7L20.6,8.7z
	 M42.4,16.4l-6.2-5.1V0.9c0-0.5-0.4-0.9-0.9-0.9h-4.2c-0.5,0-0.9,0.4-0.9,0.9v5.4l-6.7-5.5c-1.3-1.1-3.3-1.1-4.6,0L0,16.4
	c-0.4,0.3-0.4,0.9-0.1,1.3l0,0L1.8,20c0.3,0.4,0.9,0.4,1.3,0.1l0,0L20.7,5.6c0.3-0.3,0.8-0.3,1.1,0l17.6,14.5
	c0.4,0.3,0.9,0.3,1.3-0.1l0,0l1.9-2.3C42.8,17.2,42.8,16.7,42.4,16.4L42.4,16.4L42.4,16.4z"/>
</svg>
