<?xml version="1.0" encoding="utf-8"?>
<!-- Generator: Adobe Illustrator 24.2.0, SVG Export Plug-In . SVG Version: 6.00 Build 0)  -->
<svg version="1.1" id="Layer_1" focusable="false" xmlns="http://www.w3.org/2000/svg" xmlns:xlink="http://www.w3.org/1999/xlink"
	 x="0px" y="0px" viewBox="0 0 24.8 33.1" style="enable-background:new 0 0 24.8 33.1;" xml:space="preserve">
<style type="text/css">
	.st0{fill:#293247;}
</style>
<path class="st0" d="M14.5,8.8V0H1.6C0.7,0,0,0.7,0,1.6v30c0,0.9,0.7,1.6,1.6,1.6h21.7c0.9,0,1.6-0.7,1.6-1.6V10.3H16
	C15.2,10.3,14.5,9.6,14.5,8.8z M18.9,20.3l0.7,0.7c0.4,0.4,0.4,1.1,0,1.5l-1.9,1.9l1.9,1.9c0.4,0.4,0.4,1.1,0,1.5l-0.7,0.7
	c-0.4,0.4-1.1,0.4-1.5,0l-1.9-1.9l-1.9,1.9c-0.4,0.4-1.1,0.4-1.5,0l-0.7-0.7c-0.4-0.4-0.4-1.1,0-1.5l1.9-1.9l-3.8-3.8H8.3v3.1
	c0,0.6-0.5,1.1-1.1,1.1H6.2c-0.6,0-1.1-0.5-1.1-1.1V13.4c0-0.6,0.5-1.1,1.1-1.1h5.2c2.3,0,4.1,1.8,4.1,4.1c0,1.6-0.9,2.9-2.1,3.6
	l2.1,2.1l1.9-1.9C17.9,20,18.5,20,18.9,20.3L18.9,20.3z M11.3,17.6H8.2v-2.1h3.1c0.6,0,1.1,0.5,1.1,1.1S11.9,17.6,11.3,17.6z
	 M24.8,7.9v0.4h-8.3V0h0.4c0.4,0,0.8,0.1,1.1,0.4l6.3,6.3C24.7,7,24.8,7.4,24.8,7.9z"/>
</svg>
